<?xml version="1.0" encoding="UTF-8" standalone="no"?>
<svg
   xmlns:dc="http://purl.org/dc/elements/1.1/"
   xmlns:cc="http://creativecommons.org/ns#"
   xmlns:rdf="http://www.w3.org/1999/02/22-rdf-syntax-ns#"
   xmlns:svg="http://www.w3.org/2000/svg"
   xmlns="http://www.w3.org/2000/svg"
   xmlns:sodipodi="http://sodipodi.sourceforge.net/DTD/sodipodi-0.dtd"
   xmlns:inkscape="http://www.inkscape.org/namespaces/inkscape"
   width="261.6958"
   height="75.360001"
   viewBox="0 0 261.6958 75.360001"
   version="1.1"
   id="svg34"
   sodipodi:docname="logo.svg"
   inkscape:version="1.0rc1 (09960d6f05, 2020-04-09)">
  <metadata
     id="metadata38">
    <rdf:RDF>
      <cc:Work
         rdf:about="">
        <dc:format>image/svg+xml</dc:format>
        <dc:type
           rdf:resource="http://purl.org/dc/dcmitype/StillImage" />
        <dc:title>Logo - Reworked</dc:title>
      </cc:Work>
    </rdf:RDF>
  </metadata>
  <sodipodi:namedview
     inkscape:document-rotation="0"
     pagecolor="#ffffff"
     bordercolor="#666666"
     borderopacity="1"
     objecttolerance="10"
     gridtolerance="10"
     guidetolerance="10"
     inkscape:pageopacity="0"
     inkscape:pageshadow="2"
     inkscape:window-width="1366"
     inkscape:window-height="704"
     id="namedview36"
     showgrid="false"
     fit-margin-top="0"
     fit-margin-left="0"
     fit-margin-right="0"
     fit-margin-bottom="0"
     inkscape:zoom="1.2436975"
     inkscape:cx="172.55798"
     inkscape:cy="53.506072"
     inkscape:window-x="0"
     inkscape:window-y="0"
     inkscape:window-maximized="1"
     inkscape:current-layer="Temesis-Master-Designers" />
  <!-- Generator: Sketch 58 (84663) - https://sketch.com -->
  <title
     id="title2">Logo - Reworked</title>
  <desc
     id="desc4">Created with Sketch.</desc>
  <defs
     id="defs8">
    <polygon
       id="path-1"
       points="145.81904,145.80544 0.00057604014,145.80544 0.00057604014,0.087637803 145.81904,0.087637803 " />
    <polygon
       id="path-3"
       points="461,0 0,0 0,146 461,146 " />
  </defs>
  <g
     id="Temesis-Master-Designers"
     stroke="none"
     stroke-width="1"
     fill="none"
     fill-rule="evenodd"
     transform="translate(-74.336869,-19.493928)">
    <g
       style="font-style:normal;font-weight:normal;font-size:40px;line-height:1.25;font-family:sans-serif;letter-spacing:0px;word-spacing:0px;fill:#000000;fill-opacity:1;stroke:none"
       id="text865"
       aria-label="LOGO ">
      <path
         inkscape:connector-curvature="0"
         id="path837"
         style="font-style:normal;font-variant:normal;font-weight:normal;font-stretch:normal;font-family:Luciole;-inkscape-font-specification:Luciole;fill:#ffffff;fill-opacity:1"
         d="m 113.98487,83.333928 v 10.464 H 74.336869 v -73.248 h 11.616 v 62.784 z" />
      <path
         inkscape:connector-curvature="0"
         id="path839"
         style="font-style:normal;font-variant:normal;font-weight:normal;font-stretch:normal;font-family:Luciole;-inkscape-font-specification:Luciole;fill:#ffffff;fill-opacity:1"
         d="m 186.46475,57.221928 q 0,16.704 -9.024,27.168 -9.024,10.464 -23.904,10.464 -14.88,0 -23.904,-10.464 -8.928,-10.464 -8.928,-27.168 0,-16.8 8.928,-27.264 9.024,-10.464 23.904,-10.464 14.88,0 23.904,10.56 9.024,10.464 9.024,27.168 z m -11.616,0 q 0,-12.096 -5.856,-19.68 -5.76,-7.584 -15.456,-7.584 -9.696,0 -15.456,7.584 -5.76,7.488 -5.76,19.68 0,12.096 5.76,19.68 5.76,7.488 15.456,7.488 9.696,0 15.456,-7.488 5.856,-7.584 5.856,-19.68 z" />
      <path
         inkscape:connector-curvature="0"
         id="path841"
         style="font-style:normal;font-variant:normal;font-weight:normal;font-stretch:normal;font-family:Luciole;-inkscape-font-specification:Luciole;fill:#ffffff;fill-opacity:1"
         d="m 225.92074,56.357928 h 26.112 v 33.312 q -5.664,2.496 -11.712,3.84 -5.952,1.344 -11.328,1.344 -15.168,0 -24.096,-9.984 -8.832,-9.984 -8.832,-27.648 0,-17.76 9.024,-27.744 9.12,-9.984 24.576,-9.984 5.088,0 10.368,1.152 5.376,1.056 10.56,3.264 v 11.328 q -5.184,-2.592 -10.56,-3.936 -5.28,-1.344 -9.984,-1.344 -10.752,0 -16.608,7.104 -5.856,7.008 -5.856,20.256 0,13.344 5.856,20.448 5.952,7.104 16.704,7.104 2.784,0 5.472,-0.48 2.784,-0.48 4.896,-1.344 v -16.224 h -14.592 z" />
      <path
         inkscape:connector-curvature="0"
         id="path843"
         style="font-style:normal;font-variant:normal;font-weight:normal;font-stretch:normal;font-family:Luciole;-inkscape-font-specification:Luciole;fill:#ffffff;fill-opacity:1"
         d="m 331.2327,57.221928 q 0,16.704 -9.024,27.168 -9.024,10.464 -23.904,10.464 -14.88,0 -23.904,-10.464 -8.928,-10.464 -8.928,-27.168 0,-16.8 8.928,-27.264 9.024,-10.464 23.904,-10.464 14.88,0 23.904,10.56 9.024,10.464 9.024,27.168 z m -11.616,0 q 0,-12.096 -5.856,-19.68 -5.76,-7.584 -15.456,-7.584 -9.696,0 -15.456,7.584 -5.76,7.488 -5.76,19.68 0,12.096 5.76,19.68 5.76,7.488 15.456,7.488 9.696,0 15.456,-7.488 5.856,-7.584 5.856,-19.68 z" />
    </g>
  </g>
</svg>
