<?xml version="1.0" standalone="no"?>
<!DOCTYPE svg PUBLIC "-//W3C//DTD SVG 20010904//EN"
 "http://www.w3.org/TR/2001/REC-SVG-20010904/DTD/svg10.dtd">
<svg version="1.0" xmlns="http://www.w3.org/2000/svg"
 width="591.000000pt" height="591.000000pt" viewBox="0 0 591.000000 591.000000"
 preserveAspectRatio="xMidYMid meet">
<metadata>
Created by potrace 1.11, written by Peter Selinger 2001-2013
</metadata>
<g transform="translate(0.000000,591.000000) scale(0.100000,-0.100000)"
fill="#000000" stroke="none">
<path d="M2725 5899 c-290 -29 -515 -80 -775 -176 -552 -204 -1051 -576 -1396
-1043 -93 -126 -239 -400 -217 -407 6 -2 201 -122 434 -266 233 -144 487 -301
565 -348 l140 -86 43 86 c146 293 407 538 640 601 23 6 48 13 56 16 11 4 13
-351 13 -2111 0 -1164 1 -2118 3 -2119 5 -5 127 -17 319 -32 195 -15 771 -8
935 11 17 2 66 7 110 10 44 4 82 10 85 15 3 4 5 958 4 2118 l0 2110 25 -5
c139 -25 305 -119 435 -246 109 -106 196 -237 261 -389 l29 -66 35 23 c89 58
482 302 636 395 94 56 181 110 195 119 14 9 30 18 35 21 35 17 235 143 240
150 3 5 -9 44 -26 86 -28 67 -47 105 -93 189 -38 69 -139 208 -220 301 -184
214 -391 395 -636 556 -295 193 -709 369 -995 424 -11 2 -40 8 -65 14 -69 15
-116 23 -290 45 -69 9 -446 12 -525 4z"/>
</g>
</svg>
